<svg xmlns="http://www.w3.org/2000/svg" width="256" height="256"><path fill="#1976D2" fill-opacity=".016" fill-rule="evenodd" d="M0 128.004v128.004l128.25-.254 128.25-.254.254-127.75L257.008 0H0zm.485.496c0 70.4.119 99.053.265 63.672.146-35.38.146-92.98 0-128C.604 29.153.485 58.1.485 128.5"/><path fill="#1976D2" fill-opacity=".195" fill-rule="evenodd" d="M135.5 33.627c-1.1 1.393-2.663 3.241-3.473 4.105-1.283 1.368-7.396 9.016-12.797 16.008a118.47 118.47 0 0 1-3.768 4.573 151.568 151.568 0 0 0-4.109 4.965c-1.837 2.335-2.851 2.659-8.995 2.87-3.808.131-7.429-.074-8.046-.455-.682-.422-.912-2.256-.586-4.684C94.469 55.47 92.96 54 86.533 54c-3.953 0-5.663-.486-7.033-2-1.261-1.394-3.08-2-6-2s-4.739.606-6 2c-1.363 1.506-3.08 2-6.955 2C54.274 54 53 55.137 53 60.731c0 4.698-.168 4.836-6.808 5.599-3.941.453-4.394.27-5.313-2.147-1.383-3.639-2.51-4.15-9.185-4.168-5.273-.014-6.077.281-8.747 3.204l-2.94 3.219-10.003-.28L0 65.879V100h49.5c34.369 0 49.5.326 49.5 1.066 0 .586-.466 1.936-1.035 3-1.002 1.871-2.608 1.934-49.5 1.934H0v116.05l55.037-.275c46.895-.234 55.17-.49 55.936-1.731.666-1.078-.642-3.007-5.037-7.429-3.265-3.285-5.936-6.274-5.936-6.641s-.9-1.706-2-2.974c-1.1-1.268-2-3.037-2-3.931 0-.893-.9-2.395-2-3.337-1.1-.942-2-2.603-2-3.691 0-1.089-.937-3.776-2.082-5.973-1.925-3.694-2.056-5.339-1.75-21.928.285-15.378.581-18.21 2.082-19.866.963-1.062 1.75-3.138 1.75-4.613 0-1.474.9-3.451 2-4.393 1.1-.942 2-2.472 2-3.4 0-4.582 17.548-22.414 24-24.389 1.375-.421 3.088-1.601 3.807-2.622.718-1.022 2.126-1.857 3.127-1.857 1.002 0 2.316-.596 2.92-1.324 2.35-2.831-.898-3.676-14.137-3.676-9.862 0-12.786-.293-12.467-1.25.325-.974 11.924-1.307 52.583-1.509 45.955-.228 52.167-.079 52.167 1.25 0 1.266-2.057 1.511-12.75 1.524-7.012.009-13.378.413-14.146.899-1.806 1.144-.682 4.086 1.561 4.086 1.859 0 6.779 3.119 14.98 9.498 6.528 5.077 18.355 19.729 18.355 22.739 0 .725.759 2.402 1.687 3.726.927 1.325 2.013 4.237 2.412 6.473.399 2.235 1.486 6.089 2.416 8.564 2.15 5.721 1.642 20.862-.863 25.706-.909 1.757-1.652 4.917-1.652 7.022 0 2.59-.647 4.381-2 5.54-1.1.942-2 2.826-2 4.187 0 1.451-.827 2.917-2 3.545-1.1.589-2 1.66-2 2.38 0 .721-.9 2.125-2 3.12-1.1.995-2.014 2.303-2.032 2.905-.043 1.517-4.23 6.13-6.823 7.517-2.678 1.434-2.758 3.679-.18 5.059 1.271.681 11.419.958 28.75.785l26.785-.266.259-58 .259-58-21.504.288c-22.424.3-25.514-.161-25.514-3.805 0-1.865.972-1.957 23.25-2.215l23.25-.268.275-17 .275-17-7.279.32-7.279.321-1.159-3.071-1.159-3.07h-22.276l-1.499 3.588c-1.054 2.521-1.954 3.413-3.031 3-.842-.324-4.119-.588-7.281-.588h-5.75l-3.226-4.978c-1.774-2.738-4.887-6.753-6.918-8.922-2.031-2.169-4.486-4.991-5.454-6.272-.969-1.28-3.894-5.126-6.5-8.545l-4.739-6.218-18 .014-18 .013zM.411 83c0 9.625.15 13.563.334 8.75.183-4.813.183-12.688 0-17.5C.561 69.438.411 73.375.411 83m.058 81c0 32.175.126 45.337.28 29.25.155-16.088.155-42.413 0-58.5-.154-16.088-.28-2.925-.28 29.25m142.972-56.532c-1.067.808-3.56 1.483-5.538 1.5-2.124.019-4.541.851-5.903 2.032-1.268 1.1-3.067 2-3.998 2s-2.507.9-3.502 2c-.995 1.1-2.404 2-3.131 2-2.817 0-19.369 18.888-19.369 22.102 0 .551-.874 2.666-1.943 4.7-2.499 4.757-4.551 19.499-3.67 26.366.377 2.933 1.027 7.896 1.446 11.029.418 3.133 1.527 6.543 2.464 7.579.937 1.035 1.703 2.565 1.703 3.4s.9 2.556 2 3.824c1.1 1.268 2 2.674 2 3.123 0 1.121 11.821 12.852 15.767 15.646 1.762 1.248 4.223 2.73 5.469 3.293 1.245.563 3.389 1.673 4.764 2.466 1.375.793 3.936 1.449 5.691 1.457 1.755.008 3.469.465 3.809 1.015.763 1.234 26.16 1.359 26.918.133.295-.477 2.59-1.099 5.1-1.382 2.51-.283 5.368-1.243 6.351-2.133.984-.89 2.537-1.618 3.451-1.618.915 0 2.225-.9 2.912-2 .687-1.1 1.736-2 2.33-2 3.13 0 14.993-12.379 18.209-19 .668-1.375 1.603-3.175 2.077-4 3.319-5.772 4.549-12.143 4.896-25.362.293-11.162.078-14.18-1.105-15.5-.809-.901-1.798-3.438-2.199-5.638-.401-2.2-1.565-5.073-2.585-6.385-1.02-1.312-1.855-2.774-1.855-3.25 0-2.049-15.585-17.865-17.605-17.865-.729 0-1.806-.9-2.395-2-.596-1.114-2.094-2-3.38-2-1.271 0-3.125-.9-4.12-2-1.181-1.305-3.08-2-5.464-2-2.009 0-4.527-.661-5.595-1.468-2.75-2.08-21.269-2.129-24-.064m2.694 14.071c-1.85.804-4.593 1.461-6.095 1.461-1.501 0-3.545.9-4.54 2-.995 1.1-2.612 2-3.593 2-2.312 0-15.907 13.607-15.907 15.921 0 .973-.839 2.529-1.865 3.457-1.274 1.153-2.076 3.742-2.529 8.166-.365 3.563-1.101 7.628-1.635 9.033-.644 1.693-.621 3.208.067 4.494.571 1.067 1.31 4.851 1.642 8.408.417 4.465 1.18 6.989 2.462 8.15 1.022.924 1.858 2.348 1.858 3.164 0 1.913 8.125 12.098 9.7 12.16.66.026 1.56.654 2 1.396.739 1.247 3.88 3.202 8.8 5.479 7.722 3.573 23.581 5.198 28.149 2.884 1.568-.795 4.493-1.742 6.501-2.105 2.007-.363 4.199-1.323 4.872-2.133.673-.811 1.73-1.481 2.35-1.49 3.052-.042 17.625-16.232 17.632-19.587.002-1.043.902-3.37 2-5.171 1.671-2.741 1.996-5.041 1.996-14.128 0-8.341-.341-11.136-1.474-12.076-.81-.673-1.757-2.737-2.104-4.587-.347-1.85-1.259-3.885-2.027-4.522-.767-.637-1.395-1.753-1.395-2.48 0-1.715-12.707-14.433-14.421-14.433-.72 0-2.382-.84-3.694-1.867-1.312-1.027-3.96-2.11-5.885-2.407-1.925-.297-5.3-1.021-7.5-1.609-5.516-1.474-11.367-1.314-15.365.422m-.635 5.394c-1.65 1.13-3.993 2.057-5.206 2.06-1.213.004-3.734 1.045-5.603 2.313C130.11 134.415 121 143.609 121 145.124c0 .67-.671 1.96-1.492 2.867-1.903 2.103-3.893 11.05-3.893 17.509s1.99 15.406 3.893 17.509c.821.907 1.492 2.256 1.492 2.999 0 .742 3.414 4.644 7.587 8.671 5.44 5.249 8.318 7.321 10.171 7.321 1.422 0 3.455.788 4.518 1.75 1.565 1.416 3.803 1.75 11.724 1.75s10.159-.334 11.724-1.75c1.063-.963 2.985-1.75 4.271-1.75 1.285 0 3.05-.676 3.921-1.503.871-.827 3.539-3.077 5.929-5 4.805-3.868 7.519-7.501 11.2-14.997 2.14-4.358 2.455-6.366 2.455-15.646 0-8.736-.314-10.993-1.75-12.579-.963-1.063-1.758-2.572-1.768-3.354-.045-3.466-10.612-15.921-13.508-15.921-.801 0-2.019-.9-2.706-2-.716-1.146-2.332-2-3.786-2-1.395 0-3.613-.754-4.929-1.675-1.56-1.093-5.028-1.809-9.972-2.061-6.407-.325-8.046-.067-10.581 1.669m-13.292 16.355c-2.384 2.429-4.208 5.247-4.208 6.5 0 2.536 2.166 2.922 4 .712.685-.825 1.811-1.5 2.504-1.5 1.6 0 6.496-6.356 6.496-8.433 0-3.055-4.485-1.667-8.792 2.721m-63.679 24.62c-.333 1.049-1.221 2.143-1.973 2.432-.752.289-1.671 1.905-2.041 3.592-.371 1.688-1.079 3.068-1.574 3.068-.495 0-1.831 1.824-2.969 4.054l-2.068 4.055 2.13 3.445c3.678 5.952 9.255 3.675 10.445-4.265.393-2.62 1.346-5.984 2.118-7.476.772-1.493 1.403-4.536 1.403-6.763 0-3.623-.256-4.05-2.433-4.05-1.515 0-2.661.72-3.038 1.908m107.794 16.693c-.545 1.419 1.058 3.342 2.82 3.384.968.023 1.944-3.035 1.301-4.075-.909-1.471-3.455-1.044-4.121.691"/><path fill="#1976D2" fill-opacity=".351" fill-rule="evenodd" d="M139 32.594c0 .876-.787 1.806-1.75 2.067-.963.261-4.799 4.381-8.526 9.156-17.99 23.052-19.074 24.111-25.44 24.849-3.265.378-6.352.134-8.25-.652C92.267 66.868 92 66.346 92 62.079 92 56.27 90.781 55 85.208 55c-2.878 0-5.269-.689-6.935-2-3.207-2.523-6.315-2.542-9.472-.058-1.582 1.245-4.414 2.053-7.885 2.25L55.5 55.5l-.302 5.243c-.342 5.941-1.423 6.96-7.707 7.26-6.043.289-6.284.203-7.694-2.753-1.131-2.369-1.996-2.793-6.239-3.062-6.37-.404-9.283.371-10.011 2.663C22.601 67.832 18.493 69 8.953 69H0v30h97.93l3.285-2.782 3.285-2.783 51 .175c28.05.097 51.349.224 51.775.283.426.059 1.205 1.24 1.732 2.625l.958 2.519 23.267-.269L256.5 98.5l.275-15.022.275-15.022-6.775-.273c-6.141-.248-7.009-.554-9.281-3.267l-2.506-2.994-9.915.289c-9.863.287-9.924.305-11.577 3.289-1.614 2.916-1.839 2.99-8.037 2.646C202.032 67.761 198 66.622 198 65.05c0-1.018-10.312-14.112-15.396-19.55-1.543-1.65-3.392-4.125-4.109-5.5-.718-1.375-2.491-3.526-3.941-4.779-1.45-1.254-2.366-2.716-2.036-3.25.379-.613-5.682-.971-16.459-.971-14.942 0-17.059.198-17.059 1.594M.402 84c0 8.525.154 12.013.341 7.75.188-4.263.188-11.237 0-15.5C.556 71.987.402 75.475.402 84M114.5 99.703c-10.839.407-12.257.85-14.489 4.52l-1.927 3.169-36.292-.03c-19.961-.017-42.03.146-49.042.361L0 108.114V221h53.309c41.072 0 53.7-.287 55.012-1.25 1.533-1.125 1.152-1.791-3.809-6.652-3.032-2.972-5.512-5.715-5.512-6.097 0-.382-.9-1.733-2-3.001-1.1-1.268-2-3.037-2-3.931 0-.893-.9-2.395-2-3.337-1.1-.942-2-2.393-2-3.226 0-.832-.9-3.192-2-5.245-1.1-2.052-2-5.541-2-7.753 0-2.212-.36-5.368-.801-7.015-1.314-4.911 1.074-29.033 3.096-31.267.938-1.036 1.705-2.865 1.705-4.065 0-1.199.9-2.951 2-3.893 1.1-.942 2-2.626 2-3.742 0-1.117 1.912-4.106 4.25-6.644a847.045 847.045 0 0 0 6.382-6.998c3.906-4.369 9.831-9.122 13.118-10.524 1.787-.763 3.25-1.84 3.25-2.395 0-.554 1.138-1.526 2.528-2.16 1.835-.836 2.178-1.375 1.25-1.963-.703-.446-1.728-.728-2.278-.625-.55.102-4.6.321-9 .486m69.277-.151c-1.037 1.043.069 2.448 1.927 2.448.872 0 2.533.931 3.691 2.07 1.158 1.138 4.717 4.021 7.909 6.406C203.586 115.17 213 125.322 213 127.403c0 .708.9 2.102 2 3.097 1.1.995 2 2.571 2 3.502 0 .931.9 2.73 2 3.998 1.1 1.268 2 3.712 2 5.431 0 1.718.787 4.237 1.75 5.596 1.389 1.963 1.822 5.081 2.097 15.108.306 11.124.097 13.203-1.75 17.378-1.153 2.607-2.097 5.964-2.097 7.459 0 1.495-.9 3.533-2 4.528-1.1.995-2 2.57-2 3.5 0 .93-.9 2.505-2 3.5-1.1.995-2 2.168-2 2.605 0 1.64-6.21 9.915-9.195 12.251-2.057 1.61-2.894 2.969-2.485 4.036.545 1.419 3.605 1.608 26.067 1.608 13.997 0 26.161-.273 27.031-.607 1.416-.543 1.582-6.448 1.582-56.415v-55.807l-7.619-.714c-4.19-.393-12.692-.402-18.892-.02-15.046.927-18.296.269-20.108-4.068L207.973 100l-8.236-.011c-4.531-.006-9.812-.271-11.737-.588-1.925-.317-3.825-.25-4.223.151m-37.333 9.045c-2.169.755-5.562 1.38-7.539 1.388-2.311.01-4.242.73-5.405 2.015-.995 1.1-2.795 2-4 2s-3.005.9-4 2c-.995 1.1-2.369 2-3.052 2-1.893 0-15.387 13.908-16.047 16.54-.32 1.274-1.216 2.559-1.991 2.856-.776.298-1.41 1.35-1.41 2.337 0 .988-.997 3.59-2.216 5.782-2.028 3.647-2.218 5.361-2.25 20.197-.036 16.945.117 17.684 5.621 27.288.473.825 1.4 2.625 2.06 4 1.569 3.266 13.543 14.951 17.89 17.458 8.099 4.671 12.626 6.524 15.954 6.533 1.957.005 4.432.67 5.5 1.477 2.66 2.013 18.99 2.151 19.751.167.308-.804 2.615-1.566 5.617-1.854 2.801-.269 5.912-1.23 6.912-2.135 1-.905 2.601-1.646 3.557-1.646s4.225-2.025 7.263-4.5c3.038-2.475 5.922-4.5 6.407-4.5.485 0 1.537-1.238 2.337-2.75.8-1.512 2.803-4.204 4.452-5.982 1.649-1.777 3.31-4.252 3.69-5.5.38-1.247 1.275-2.943 1.989-3.768.713-.825 1.61-3.3 1.994-5.5.383-2.2 1.321-4.997 2.084-6.215 1.958-3.124 1.935-23.059-.029-25.864-.78-1.113-1.737-3.8-2.127-5.972-.39-2.172-1.259-4.624-1.931-5.449-.671-.825-1.518-2.334-1.881-3.353-1.949-5.469-17.781-21.181-23.325-23.147-1.551-.55-3.933-1.787-5.292-2.75-1.36-.963-3.88-1.75-5.6-1.75-1.721 0-4.433-.414-6.028-.92-5.288-1.678-14.823-1.921-18.955-.483m2.311 10.313c-2.61.374-5.288 1.223-5.95 1.885-.663.663-2.395 1.205-3.85 1.205s-3.46.9-4.455 2c-.995 1.1-2.644 2-3.662 2-2.301 0-15.838 13.669-15.838 15.992 0 .934-.845 2.462-1.877 3.397-1.135 1.027-2.14 3.757-2.542 6.905-.365 2.863-1.392 7.144-2.281 9.513-1.488 3.967-1.488 4.576.001 7.697.889 1.865 1.926 5.776 2.305 8.693.379 2.917 1.522 6.376 2.541 7.688 1.019 1.312 1.853 2.945 1.853 3.631 0 1.577 13.511 15.484 15.044 15.484.627 0 2.285.9 3.683 2 1.399 1.1 3.623 2 4.943 2 1.32 0 3.563.762 4.985 1.693 3.541 2.321 19.717 2.39 23.353.101 1.37-.863 4.18-1.865 6.242-2.227 2.063-.362 3.75-1.101 3.75-1.644 0-.542.787-1.276 1.75-1.631 3.175-1.17 9.958-7.262 12.876-11.563 1.577-2.326 3.432-4.589 4.121-5.029.689-.44 1.253-1.571 1.253-2.514 0-.944.9-3.395 2-5.447 1.676-3.128 1.999-5.634 1.993-15.485-.005-10.048-.295-12.19-1.993-14.754-1.093-1.65-1.99-3.99-1.993-5.2-.004-1.21-.571-2.56-1.26-3-.689-.44-2.544-2.703-4.121-5.029-2.652-3.909-10.579-11.271-12.137-11.271-.37 0-1.818-.9-3.216-2-1.399-1.1-3.404-2-4.458-2-1.053 0-3.129-.618-4.615-1.373-3.465-1.761-12.366-2.59-18.445-1.717M146 128.5c-1.375.786-3.457 1.445-4.628 1.465-1.17.019-2.651.666-3.291 1.437-.639.771-2.289 1.684-3.666 2.03-1.377.346-3.603 1.852-4.947 3.348a5619.98 5619.98 0 0 0-4.956 5.522c-1.382 1.54-2.512 3.305-2.512 3.921 0 .616-.638 1.83-1.418 2.698-3.684 4.101-3.829 28.939-.192 32.957.885.979 1.623 2.419 1.639 3.201.065 3.147 14.398 15.921 17.863 15.921 1.164 0 3.794.9 5.847 2 4.822 2.585 12.396 2.576 18.12-.022 2.398-1.088 5.285-1.978 6.416-1.978 2.41 0 3.072-.519 11.967-9.375 3.708-3.692 7.024-7.931 7.369-9.419.345-1.488 1.361-3.831 2.258-5.206 2.407-3.69 2.322-20.027-.119-22.724-.963-1.063-1.75-2.85-1.75-3.97 0-3.25-10.969-16.306-13.7-16.306-.706 0-1.845-.9-2.532-2s-2.209-2-3.383-2c-1.173 0-4.047-.675-6.385-1.5-5.333-1.882-14.708-1.882-18 0m-14.792 13.788c-3.181 3.241-4.208 5.072-4.208 7.5 0 2.845.317 3.212 2.778 3.212 1.528 0 3.536-.787 4.462-1.75.926-.963 3.051-3.1 4.721-4.75 1.918-1.894 3.037-4.013 3.038-5.75.001-2.443-.366-2.75-3.291-2.75-2.556 0-4.232.958-7.5 4.288m-62.131 22.905a328.4 328.4 0 0 1-3.593 4.109c-1.366 1.54-2.484 3.232-2.484 3.76 0 .527-1.575 3.199-3.5 5.938s-3.5 5.458-3.5 6.043c0 2.472 5.556 7.957 8.059 7.957 4.042 0 5.87-2.046 8.512-9.526 3.24-9.17 3.126-18.803-.228-19.281-1.186-.169-2.656.281-3.266 1M175.75 182.08c-3.499 2.038-1.431 6.92 2.931 6.92 2.742 0 4.23-4.198 2.308-6.513-1.432-1.725-2.794-1.831-5.239-.407"/><path fill="#1976D2" fill-opacity=".878" fill-rule="evenodd" d="M138.299 35.822c-1.921.592-11.258 11.352-11.323 13.048-.013.347-2.713 3.551-6 7.12-3.287 3.57-5.976 7.055-5.976 7.744 0 .689-1.868 2.606-4.15 4.26-3.496 2.532-5.079 3.006-10.045 3.006C92.845 71 90 68.379 90 61.045V56h-5.845c-4.575 0-6.238-.435-7.655-2-2.226-2.46-3.832-2.526-6.105-.25-1.128 1.129-3.904 1.927-7.822 2.25l-6.073.5-.093 4c-.052 2.2-.164 4.717-.25 5.593-.255 2.593-6.122 5.107-11.055 4.737-4.281-.321-5.266-1.091-6.498-5.08-.443-1.433-1.725-1.75-7.073-1.75C26.54 64 25 64.337 25 65.427c0 .786-1.186 2.361-2.635 3.5-2.137 1.681-4.073 2.076-10.25 2.087C-.732 71.037 0 70.215 0 84.617V97h97.8l3.612-3.612c3.408-3.408 3.87-3.573 8.188-2.925 2.516.377 25.349.666 50.738.641 25.389-.024 46.702.293 47.362.704.66.412 1.594 1.813 2.075 3.113l.875 2.365 22.378-.209c12.307-.115 22.736-.431 23.175-.702.438-.271.797-6.091.797-12.934V71h-5.435c-6.909 0-10.355-1.319-11.532-4.412-.885-2.328-1.4-2.464-10.504-2.768-5.266-.176-10.014-.17-10.551.013-.538.184-.978 1.331-.978 2.55 0 1.219-.54 2.757-1.2 3.417-1.791 1.791-13.257 1.559-14.8-.3-.685-.825-1.874-1.5-2.644-1.5-.769 0-1.911-1.125-2.538-2.5-.626-1.375-1.441-2.5-1.81-2.5s-2.135-2.26-3.925-5.021c-1.789-2.762-5.688-7.575-8.663-10.697-2.976-3.121-5.669-6.492-5.986-7.49-1.158-3.648-5.218-4.54-20.934-4.595-8.25-.03-15.99.252-17.201.625M.389 84.5c.001 7.15.161 9.944.353 6.208.193-3.735.192-9.585-.003-13-.194-3.414-.352-.358-.35 6.792m102.558 19.561c-.863.858-2.281 2.578-3.152 3.821l-1.584 2.261-49.105-.105L0 109.933V219.5l53.062-.145c29.184-.08 53.328-.411 53.653-.737.325-.325-1.502-2.541-4.062-4.924-2.559-2.384-4.653-5.074-4.653-5.979 0-.904-.9-2.126-2-2.715s-2-1.959-2-3.045c0-1.086-.9-2.745-2-3.687-1.1-.942-2-2.59-2-3.662 0-1.071-.732-2.757-1.626-3.745-.918-1.014-1.919-4.531-2.3-8.079-.371-3.455-1.214-7.265-1.874-8.466-1.717-3.126-1.489-15.35.332-17.757.851-1.126 1.468-4.114 1.468-7.115 0-3.66.585-5.918 2-7.717 1.1-1.398 2-3.693 2-5.1 0-1.533.8-2.985 2-3.627 1.167-.624 2-2.094 2-3.527 0-1.373.882-3.007 2-3.705 1.1-.687 2-1.8 2-2.473 0-.674.9-1.706 2-2.295s2-1.651 2-2.361c0-1.597 4.19-5.639 5.846-5.639.669 0 1.475-.674 1.791-1.497.316-.824 2.763-2.915 5.437-4.648 2.674-1.732 4.63-3.526 4.346-3.985-.936-1.513-14.76-.514-16.473 1.191m87.478-.94c-.778 1.26 1.279 2.841 3.727 2.864 2.321.021 19.848 17.721 19.848 20.044 0 1.045.9 2.382 2 2.971s2 1.894 2 2.9c0 1.007.9 2.974 2 4.373 1.1 1.398 2 3.695 2 5.104 0 1.409.932 4.35 2.071 6.535 1.883 3.613 2.042 5.378 1.75 19.429-.27 13.021-.597 15.759-2.071 17.386-.962 1.062-1.75 3.288-1.75 4.947 0 1.746-.842 3.778-2 4.826-1.1.995-2 2.57-2 3.5 0 .93-.9 2.505-2 3.5-1.1.995-2 2.57-2 3.499 0 .928-2.702 4.459-6.005 7.845s-5.891 6.176-5.75 6.201c.454.079 47.149.107 50.505.03L256 219V110h-21.066c-12.536 0-21.845-.417-22.989-1.03-1.059-.566-2.594-2.324-3.412-3.905-1.442-2.791-1.725-2.879-9.456-2.962-4.82-.051-8.239.351-8.652 1.018m-48.562 7.615c-3.999.253-6.151.925-7.405 2.311-.972 1.074-2.798 1.953-4.056 1.953-1.259 0-2.877.835-3.595 1.857-.719 1.021-2.324 2.177-3.566 2.57-2.79.881-15.241 13.306-15.241 15.208 0 .762-.9 2.155-2 3.097-1.1.942-2.003 2.85-2.007 4.24-.003 1.391-.9 3.878-1.993 5.528-1.775 2.68-1.988 4.715-1.993 19.095-.006 14.83.15 16.237 1.993 17.905 1.1.995 2 2.99 2 4.433 0 1.442.9 3.393 2 4.335 1.1.942 2 2.467 2 3.388 0 1.803.281 2.148 8.211 10.094 2.882 2.887 5.968 5.25 6.859 5.25s2.435.9 3.43 2c.995 1.1 2.492 2 3.326 2 .834 0 2.35.755 3.37 1.677 1.287 1.165 4.669 1.905 11.079 2.422 5.074.409 9.338.779 9.475.823.137.043.25.753.25 1.578 0 2.093 2.285 1.875 3.675-.351.916-1.468 2.848-1.968 9.313-2.411 5.402-.37 8.75-1.096 9.913-2.148.966-.875 2.539-1.59 3.495-1.59s4.225-2.025 7.263-4.5c3.038-2.475 5.836-4.5 6.217-4.5.381 0 1.43-1.238 2.33-2.75.901-1.512 2.961-4.1 4.577-5.75 1.616-1.65 3.279-4.125 3.696-5.5.417-1.375 1.319-3.175 2.005-4 .685-.825 1.528-3.668 1.871-6.317.344-2.649 1.305-5.787 2.135-6.972 2.375-3.391 2.063-17.686-.49-22.45-1.1-2.052-2-5.017-2-6.588 0-1.572-.9-4.002-2-5.4-1.1-1.399-2-3.209-2-4.024 0-.814-3.969-5.366-8.82-10.115-10.546-10.323-10.805-10.525-15.422-12.049-1.996-.659-3.787-1.673-3.981-2.253-.671-2.014-18.165-3.095-33.914-2.096m.969 8.182c-1.456 1.145-3.745 2.082-5.087 2.082-1.341 0-3.477.9-4.745 2-1.268 1.1-2.89 2-3.605 2-2 0-15.395 13.804-15.395 15.866 0 1.003-.9 2.639-2 3.634-1.1.995-2 2.99-2 4.432 0 1.443-.784 3.736-1.742 5.095-2.485 3.529-2.491 18.437-.008 22.23.963 1.47 1.75 3.855 1.75 5.3 0 1.445.9 3.772 2 5.17 1.1 1.399 2 3.071 2 3.717 0 3.331 17.194 18.261 22.096 19.187 1.872.354 4.238 1.369 5.258 2.256 2.821 2.454 24.624 2.344 27.368-.137 1.065-.963 3.105-1.75 4.535-1.75 1.43 0 3.387-.787 4.348-1.75.961-.963 3.866-3.116 6.456-4.787 4.829-3.114 9.939-8.419 9.939-10.318 0-.587.837-1.872 1.859-2.856 1.023-.984 2.17-3.081 2.549-4.66.38-1.579 1.344-3.523 2.141-4.321 1.136-1.136 1.451-4.641 1.451-16.157 0-13.469-.168-14.851-2-16.419-1.1-.942-2-2.742-2-4s-.9-3.058-2-4c-1.1-.942-2-2.318-2-3.057 0-1.987-9.016-10.782-12.58-12.272-1.693-.708-3.661-1.988-4.372-2.845-.711-.857-2.44-1.558-3.842-1.558-1.402 0-3.417-.787-4.479-1.75-1.526-1.383-4.166-1.82-12.59-2.082-9.574-.298-10.928-.12-13.305 1.75M143 130.74c-1.925.231-3.832 1.009-4.237 1.728-.406.72-1.816 1.579-3.134 1.91-2.727.685-8.629 5.852-8.629 7.555 0 .621-.658 1.382-1.462 1.691-.804.308-1.757 1.532-2.118 2.718-.361 1.187-1.38 2.981-2.264 3.986-2.471 2.81-2.394 27.646.094 30.396.963 1.063 1.75 2.631 1.75 3.484 0 1.625 9.137 11.776 10.634 11.814.476.012 1.991.902 3.366 1.978s3.642 1.966 5.039 1.978c1.396.012 4.303.922 6.461 2.022 2.158 1.1 4.711 2 5.674 2 .964 0 4.035-.9 6.826-2 2.791-1.1 6.307-2 7.815-2 1.507 0 3.454-.787 4.326-1.75.872-.963 2.997-2.87 4.722-4.239 1.725-1.369 3.137-2.804 3.137-3.19 0-.385-1.687-.84-3.75-1.011-3.44-.284-3.776-.584-4.068-3.625-.395-4.108 1.223-6.185 4.818-6.185 3.263 0 5.433 2.236 4.741 4.884-.273 1.042-.175 2.413.217 3.047.895 1.449 6.029-5.722 6.074-8.485.017-1.07.692-2.82 1.5-3.887 2.035-2.691 2.035-17.427 0-20.118-.808-1.067-1.483-3.099-1.5-4.514-.023-1.82-2.045-4.601-6.908-9.5-9.274-9.343-9.752-9.679-15.026-10.549-4.784-.789-18.035-.865-24.098-.138m-12.75 10.187c-3.813 3.449-4.25 4.312-4.25 8.391 0 3.554.406 4.676 1.859 5.137 2.219.705 4.999-.187 7.376-2.365 6.75-6.188 7.763-7.667 7.764-11.34L143 137l-4.25.041c-3.496.034-5.004.723-8.5 3.886m-60.5 21.645c-1.513.821-2.75 1.928-2.75 2.46s-.787 1.786-1.75 2.787c-2.777 2.886-5.909 7.532-6.648 9.86-.374 1.177-1.337 2.686-2.141 3.353C52.066 184.68 57.82 194 64.467 194c4.81 0 7.531-1.547 7.54-4.285.003-1.218.9-3.565 1.993-5.215 3.391-5.12 2.638-23.721-.95-23.46-.302.022-1.787.711-3.3 1.532"/></svg>